<?xml version="1.0" encoding="UTF-8"?>
<svg id="Layer_1" xmlns="http://www.w3.org/2000/svg" baseProfile="tiny-ps" version="1.2" viewBox="0 0 80 80">
  <!-- Generator: Adobe Illustrator 29.6.1, SVG Export Plug-In . SVG Version: 2.1.1 Build 9)  -->
<title>uDLVR</title>
  <path d="M80,0v80H0V0h80ZM47.42,28.05h-4.53c-2.13,0-4.28-.03-6.41.04-.05.02-.05.09-.07.12-.01.01,0,.05,0,.08-.02.09,0,.07,0,.08-.05,1.01.04,2.04,0,3.05-.29,2.66-.05,5.84-.08,8.59-.01,1.24.13,3.42-.31,4.53-.08.2-.54.83-.7,1.02-.67.77-1.89,1.12-2.89,1.17-1.39.07-2.6-.14-3.67-1.02-.19-.37-.59-.73-.78-1.09-.64-1.25-.53-3.23-.55-4.61-.01-.94,0-1.88,0-2.81,0-1.4,0-2.81,0-4.22,0-1.36.08-2.88,0-4.22-.03-.4.04-.58-.43-.63-1.76-.19-3.83.14-5.63,0l-.35.24c0,2.42,0,4.84,0,7.27,0,3.36-.4,7.5.78,10.62,1.72,4.56,5.91,5.97,10.51,5.71,2.18-.13,4.06-.66,5.78-2.03.21-.17.27-.53.74-.23,0,.5-.08,1.4,0,1.83.03.14.12.23.23.31,1.19.08,2.4.04,3.59.04.03,0,.05,0,.08,0,2.12,0,4.39.1,6.48,0,1.39-.07,2.97-.35,4.26-.86.22-.09.58-.22.74-.39,1.53-.6,2.54-1.5,3.59-2.73.02-.03.05-.05.08-.08.07-.09.11-.17.16-.23.78-.99,1.17-1.63,1.64-2.81.02-.04.06-.09.08-.16,0-.03.05-.09.08-.16,0-.02,0-.06,0-.08.16-.1.17-.3.16-.47.01-.03.05-.08.08-.16.11-.33.25-.67.23-1.02.01-.03.06-.06.08-.16.01-.07,0-.16,0-.23.04,0,.06,0,.08-.04.41-2.16.26-4.43-.39-6.52-1.19-3.88-4.39-6.58-8.28-7.42-1.44-.31-2.92-.47-4.38-.31Z" fill="#fefefe"/>
  <path d="M42.01,34.38l-5.57,5.64c-.11-3.67-.03-7.45.16-11.04.77.15,1.21.83,1.69,1.34.95,1.01,1.68,1.75,2.78,2.63.36.29,1.4.98.94,1.43Z" fill="#35bc71"/>
  <path d="M43,33.52c0,3.65.05,7.38,0,11.06,0,.13.05.35-.08.43,0-.53-.07-1.15-.08-1.72-.01-1.07.01-2.14,0-3.2-.38.23-.66-.3-.99-.37-.13-.03-1.01-.09-1.13-.08-.55.06-.93.97-1.27,1.31-.19.2-.5.25-.7.39-.7.48-1.27,1.08-1.88,1.64-.1.09-.1.37-.27.2l-.08-.27-.31,1.64h-.08c.44-1.11.3-3.3.31-4.53l5.31-5.55,1.02-.98c.12-.06.21.05.23.04ZM42.84,39.38v-.47h-.08v.47h.08Z" fill="#068175"/>
  <path d="M60.5,42.35s-.04-.07-.08-.08l.08.31c-.02.1-.07.12-.08.16-.1.27-.22.56-.3.84-.02.07-.02.18.07.18-.02.07-.07.13-.08.16-.05.13-.11.33-.16.47,0,.02,0,.06,0,.08l-.08.16c-.02.07-.06.11-.08.16-.27.11-.15.56-.47.55.02-.3-.26-.43-.43-.63-.37-.45-.81-.87-1.21-1.28-.32-.34-.72-.84-1.06-1.13-.27-.24-1.03-.63-1.22-.89-.12-.17,0-.38-.15-.51-.02-.15.09-.16.16-.23.33-.34.68-.68,1.02-1.02l.08-.08c.15-.16.31-.31.47-.47.26-.26.52-.52.78-.78.4-.4.83-.84,1.25-1.25.05-.05.19-.08.27-.16.35-.34.71-.63.9-1.09.64,2.09.8,4.37.39,6.52-.02.04-.04.04-.08.04Z" fill="#feb217"/>
  <path d="M35.42,45.55c.14-.02.32.34.38.44.59,1.07,1.38,1.71,1.69,2.92.07.27.48.64.75.78-.27.2-.5.6-.94.55,0-.17.02-.28-.12-.39-.12-.09-1.15-.4-1.32-.4-.34,0-1.12.42-1.52.52-3.21.82-6.23.25-9.3-.48-.31-.07-.93-.03-1.12-.19-.11-.09-.08-.22-.15-.29-.65-.66-.8-.87-1.23-1.66.89.19,1.71.76,2.59.96,2.2.5,5.38.89,7.58.42.16-.03,1.16-.32,1.19-.37.13-.58-.26-1.16-.12-1.72-.3.11-.67.19-.99.22-.15.02-.3.09-.26-.15,1-.05,2.22-.4,2.89-1.17Z" fill="#0a589d"/>
  <path d="M54.01,42.74c-.05.39-.26.72-.47,1.05-.03.15.16.13.23.24.54.93.78.92,1.42,1.63.45.5.89,1.13,1.33,1.64.28.33.49.71.78,1.02.21.11.37-.4.63-.43-1.06,1.23-2.06,2.14-3.59,2.73-1.41.55-2.87.93-4.37,1.09.04-.46.59-.6.81-.86.25-.3.54-.63.78-.93.37-.46.86-1.64.8-2.21,0-.06-.32-1.14-.35-1.2-.12-.3-.74-.49-.49-.88.84-.48,1.66-1.36,2.14-2.19.14-.24.19-.49.36-.7Z" fill="#fe9415"/>
  <path d="M21.2,36.41c0,.83,0,1.67,0,2.5,0,.65-.01,1.3,0,1.95.02.85.06,1.67.16,2.5.03.27.1,1.39.25,1.54.04.04.18.03.25.09.95.79,4.32,1.54,5.64,1.71.86.11,1.76.13,2.6,0,.09-.31-.24-.22-.52-.36s-.52-.45-.72-.65c0,0-.09.01-.16-.05-.09-.09-.23-.44-.39-.49-.12-.16-.16-.39-.23-.55.19.37.59.72.78,1.09,1.07.88,2.29,1.09,3.67,1.02-.04.23.11.16.26.15.32-.03.69-.11.99-.22-.14.56.25,1.14.12,1.72-.03.05-1.04.33-1.19.37-2.2.46-5.39.08-7.58-.42-.88-.2-1.7-.78-2.59-.96-.19-.35-.49-.68-.55-1.13l-.08.04c-1.18-3.13-.78-7.27-.78-10.62h.08c0,.26,0,.52,0,.78ZM30.38,46.65v.08c.05-.03.05-.05,0-.08Z" fill="#0a5fa2"/>
  <path d="M43,28.05c0,1.82,0,3.65,0,5.47-.02,0-.11-.1-.23-.04l-1.02.98c.44-.44-.55-1.12-.9-1.41-1.04-.86-1.74-1.59-2.65-2.59-.46-.5-.94.15-1.67,0-.07-.3-.08-2.09-.12-2.35.02-.03.13,0,.18-.02,2.13-.07,4.28-.04,6.41-.04Z" fill="#3ebe69"/>
  <path d="M36.2,44.54c.27.57.76,1.01,1.17,1.48.58.67,1.2,1.3,1.84,1.95.1.1.08.27.16.32.13.1.67.24.85.23,1.04-.02,1.78-1.78,2.38-2.47.09-.1.16-.19.31-.2,0,.13,0,.26,0,.39,0,.4-.08,1.01-.08,1.41l-.08,4.22c-1.2,0-2.4.04-3.59-.04-.11-.08-.21-.17-.23-.31-.08-.44,0-1.33,0-1.83,0,0,.06-.02.06-.04-.26-.32-.49-.15-.76.04-.27-.13-.68-.5-.75-.78-.3-1.21-1.1-1.86-1.69-2.92-.05-.1-.24-.46-.38-.44.16-.18.62-.82.7-1.02h.08Z" fill="#0a5b8b"/>
  <path d="M21.12,28.37l.35-.24c1.8.15,3.87-.18,5.63,0,.47.05.4.22.43.63-.24-.04-.15.12-.16.27-.04,1.31,0,2.64,0,3.95,0,.26,0,.52,0,.78-.16.05-.13-.12-.21-.15-.96-.33-.68-.32-1.39-.86-.6-.46-1.64-.76-2.3-1.14-.55-.32-.82-.87-1.26-1.24-.24-.2-.54-.21-.73-.6-.1-.2-.03-.64-.28-.62,0-.25.06-.6-.08-.78Z" fill="#11b0cb"/>
  <path d="M55.26,40.87c.14.13.03.34.15.51.19.26.95.66,1.22.89.33.29.73.8,1.06,1.13.4.42.84.84,1.21,1.28.17.2.44.33.43.63.31.02.2-.44.47-.55-.47,1.18-.86,1.82-1.64,2.81l-.16.23s-.05.05-.08.08c-.25.03-.42.54-.63.43-.29-.31-.51-.69-.78-1.02-.44-.51-.88-1.14-1.33-1.64-.63-.71-.88-.7-1.42-1.63-.07-.11-.26-.09-.23-.24.22-.33.42-.67.47-1.05,0-.03,0-.05,0-.08.08-.03.07-.09.08-.16,0-.03,0-.05,0-.08h.16c.07-.15-.08-.3-.08-.31,0-.05,0-.1,0-.16l1.09-1.09Z" fill="#fea416"/>
  <path d="M22.53,47.35c.43.79.58,1,1.23,1.66.07.08.05.21.15.29.19.16.81.11,1.12.19,3.07.73,6.09,1.3,9.3.48.4-.1,1.18-.52,1.52-.52.17,0,1.2.31,1.32.4.14.11.13.22.12.39.44.06.67-.35.94-.55s.5-.37.76-.04c0,.02-.06.04-.06.04-.48-.3-.53.06-.74.23-1.71,1.38-3.6,1.91-5.78,2.03-4.6.27-8.79-1.15-10.51-5.71l.08-.04c.05.45.36.79.55,1.13Z" fill="#0b5298"/>
  <path d="M51.9,28.37c3.9.85,7.09,3.55,8.28,7.42-.19.46-.55.75-.9,1.09-.08.08-.23.11-.27.16-.29,0-.23-.33-.39-.51s-.5-.37-.71-.62c-.83-1.03-1.64-2.17-2.28-3.35-.18-.34-.42-1.11-.63-1.36-.07-.08-.27-.07-.33-.18-.02-.04-.25-.84-.26-.92-.03-.19.08-.61-.03-.78-.08-.12-2.19-.81-2.48-.87v-.08Z" fill="#b8cc30"/>
  <path d="M27.53,32.98c0,1.41,0,2.81,0,4.22-.14.53-.08,1.17-.08,1.72-.79.05-1.61-.3-2.34-.59-1.33-.53-2.61-1.3-3.91-1.91,0-.26,0-.52,0-.78,0-.68,0-1.36,0-2.03.17-.03.28,0,.43.07,1.02.42,1.86,1.18,2.79,1.74.61.37,1.25.63,1.88.93.29.14.66.42.95.54.14.05.11-.03.12-.11.11-.83,0-2.12,0-3.01,0-.26,0-.52,0-.78h.16Z" fill="#0399c3"/>
  <path d="M48.31,46.57c-.15.03-.32.14-.55.08.18.28-.3.8-.5,1.02-.76.81-1.23.86-1.93,1.9-.23.34-1.19,1.73-1.23,2.05,0,.06,0,.13,0,.19,1.12,0,2.24,0,3.36,0,.61,0,1.29-.07,1.88.08-2.1.1-4.37,0-6.48,0,0-1.41,0-2.81,0-4.22,0-.4.08-1.01.08-1.41.14.14.19.33.43.32h4.96Z" fill="#ef6510"/>
  <path d="M51.9,28.37v.08c-.25-.05-.55-.04-.78-.08-.67-.11-1.6-.34-2.29-.21-.1.02-.24.02-.2.16.11.41.59,1.11.81,1.54.4.76.75,1.55,1.25,2.26.62.88,1.66,1.53,2.11,2.58.07.17.13.35.12.55-1.36-1.09-2.26-1.6-4.06-1.8.09-.27.25-.16.1-.53-.43-1-1.35-2.03-1.91-3.02-.17-.3-.26-.63-.41-.92s-.45-.49-.43-.85c.49,0,.86-.03,1.33-.08,1.45-.16,2.94,0,4.38.31Z" fill="#9ac53a"/>
  <path d="M51.51,45.63c-.26.39.37.58.49.88.03.06.34,1.14.35,1.2.06.58-.43,1.75-.8,2.21-.24.3-.53.64-.78.93-.22.26-.77.41-.81.86,1.51-.16,2.97-.54,4.37-1.09-.16.17-.52.3-.74.39-1.29.51-2.87.79-4.26.86-.58-.14-1.27-.08-1.88-.08.02-.38.38-.46.59-.7.9-1.05,1.92-2.58,1.84-4.03-.02-.28-.33-.38-.32-.66.24,0,.46-.08.68-.14.02,0,.46-.1.25-.18.22-.08.81-.35,1.02-.47Z" fill="#fe8613"/>
  <path d="M47.53,28.05c-.47.05-.84.07-1.33.08-.75.01-1.51-.01-2.27,0,0,.06,0,.12.01.18.08.35.67,1.66.86,2.03.46.9,1.24,1.71,1.71,2.59.06.12.07.22.08.35l1.17.08c-1.34-.02-3.48-.03-4.77.16,0-1.82,0-3.65,0-5.47h4.53Z" fill="#7aba45"/>
  <path d="M27.53,28.76c.08,1.34,0,2.86,0,4.22h-.16c0-1.31-.04-2.64,0-3.95,0-.15-.08-.31.16-.27Z" fill="#08a6c8"/>
  <path d="M21.2,29.15c0,1.48,0,2.97,0,4.45,0,.68,0,1.36,0,2.03h-.08c0-2.42,0-4.84,0-7.27.14.18.08.54.08.78Z" fill="#0481b7"/>
  <path d="M42.84,47.66c0,1.41,0,2.81,0,4.22-.03,0-.05,0-.08,0l.08-4.22Z" fill="#0a589d"/>
  <path d="M28.07,44.62c-.33-.69-.45-1.02-.55-1.8-.08-.66-.07-1.21-.08-1.88,0-.31,0-.63,0-.94h.08c.02,1.38-.09,3.36.55,4.61Z" fill="#086ba9"/>
  <path d="M27.53,40.01h-.08c0-.36,0-.73,0-1.09,0-.55-.07-1.19.08-1.72,0,.94-.01,1.88,0,2.81Z" fill="#0675b0"/>
  <path d="M60.18,43.76c-.09,0-.09-.11-.07-.18.08-.28.2-.57.3-.84.01.35-.12.69-.23,1.02Z" fill="#fea416"/>
  <path d="M59.95,44.38c.05-.13.11-.33.16-.47,0,.17,0,.37-.16.47Z" fill="#fea416"/>
  <path d="M60.5,42.35c0,.08.01.16,0,.23l-.08-.31s.06.08.08.08Z" fill="#fea416"/>
  <path d="M59.87,44.62l.08-.16c-.03.07-.07.13-.08.16Z" fill="#fea416"/>
  <path d="M58,47.82l.16-.23c-.05.06-.08.15-.16.23Z" fill="#fe9415"/>
  <path d="M36.51,28.37s-.02,0,0-.08v.08Z" fill="#35bc71"/>
  <path d="M47.76,33.37c.28,0,.81.05,1.09.08,1.8.2,2.7.7,4.06,1.8.03.02.05.06.08.08.7.89,1.11,1.93,1.25,3.05.17,1.35-.02,2.32-.08,3.59,0,.05,0,.1,0,.16-.02.1-.06.21-.08.31,0,.02,0,.05,0,.08-.08.02-.07.09-.08.16,0,.03,0,.05,0,.08-.17.2-.22.46-.36.7-.48.84-1.3,1.71-2.14,2.19-.2.12-.8.39-1.02.47-.68.24-1.48.32-2.19.47h-4.96c-.23.02-.29-.17-.43-.31,0-.13,0-.26,0-.39,0-.29,0-.57,0-.86.13-.08.08-.3.08-.43.05-3.68,0-7.4,0-11.06,1.28-.19,3.42-.18,4.77-.16Z" fill="#fdfdfd"/>
  <path d="M36.2,44.54l.31-1.64.08.27c.17.17.17-.1.27-.2.62-.56,1.18-1.15,1.88-1.64.2-.14.51-.19.7-.39.34-.35.72-1.25,1.27-1.31.12-.01,1.01.05,1.13.08.34.07.61.61.99.37.01,1.07-.01,2.14,0,3.2l-.08,1.33c-.24.02-.26-.28-.39-.43-.31-.37-.85-.73-1.35-.65-.2.03-1.29.43-1.5.54-.81.4-1.1.7-1.71,1.29-.19.19-.56.13-.44.65-.41-.47-.9-.91-1.17-1.48Z" fill="#06887e"/>
  <path d="M42.92,45.01c0,.29,0,.57,0,.86-.15,0-.22.09-.31.2-.61.69-1.34,2.45-2.38,2.47-.17,0-.72-.14-.85-.23-.08-.06-.07-.23-.16-.32-.65-.65-1.26-1.28-1.84-1.95-.12-.52.25-.46.44-.65.61-.59.9-.89,1.71-1.29.21-.1,1.3-.51,1.5-.54.5-.08,1.03.27,1.35.65.13.15.15.45.39.43l.08-1.33c0,.56.08,1.19.08,1.72Z" fill="#069087"/>
  <rect x="42.76" y="38.91" width=".08" height=".47" fill="#06887e"/>
  <path d="M51.12,28.37c-.19.34.1.37.19.55.13.27.2.77.36,1.12,1.06,2.24,3.04,4.26,4.48,6.23.38.53.86,1.5,1.27,1.93.13.14.16.11.34.1-.26.26-.52.52-.78.78l-.55.36c-.12-.15-.19-.33-.31-.47-.73-.84-1.41-1.72-2.06-2.62-.11-.15-.23-.55-.32-.62-.08-.07-.48-.19-.74-.39-.03-.02-.05-.06-.08-.08.01-.19-.04-.37-.12-.55-.45-1.05-1.49-1.7-2.11-2.58-.5-.72-.86-1.5-1.25-2.26-.22-.43-.7-1.12-.81-1.54-.04-.14.1-.14.2-.16.68-.12,1.62.11,2.29.21Z" fill="#a6c837"/>
  <path d="M51.9,28.45c.3.07,2.41.75,2.48.87.11.17,0,.6.03.78.01.08.23.88.26.92.06.11.26.1.33.18.22.24.45,1.02.63,1.36.63,1.18,1.45,2.32,2.28,3.35.2.25.54.43.71.62s.1.5.39.51c-.42.41-.85.85-1.25,1.25-.18.02-.21.04-.34-.1-.41-.43-.88-1.4-1.27-1.93-1.43-1.97-3.42-3.98-4.48-6.23-.17-.35-.23-.85-.36-1.12-.09-.18-.39-.21-.19-.55.23.04.53.02.78.08Z" fill="#b0cb34"/>
  <path d="M56.98,39.07c-.16.15-.31.31-.47.47-.03.03-.05.05-.08.08-.33.34-.69.68-1.02,1.02-.19-.1-.3-.32-.49-.41-.11-.05-.33-.04-.36-.07-.05-.05-.13-1.27-.17-1.51-.02-.15.1-.32-.15-.27-.14-1.12-.55-2.16-1.25-3.05.27.2.66.32.74.39.09.07.21.47.32.62.65.91,1.33,1.78,2.06,2.62.12.14.2.32.31.47l.55-.36Z" fill="#9ac53a"/>
  <path d="M54.25,38.37c.25-.04.13.13.15.27.04.24.11,1.46.17,1.51.03.03.25.01.36.07.19.09.3.31.49.41-.07.07-.18.09-.16.23l-1.09,1.09c.05-1.28.25-2.24.08-3.59Z" fill="#8ac040"/>
  <path d="M56.43,39.62s.05-.05.08-.08l-.08.08Z" fill="#8ac040"/>
  <path d="M27.53,42.82c.1.78.22,1.11.55,1.8.08.16.12.39.23.55-.41-.15-1.26-.1-1.79-.21-1.08-.23-2.55-.67-3.61-1-.3-.09-.85-.47-1.19-.61-.11-.04-.29-.13-.37.02-.09-.83-.14-1.65-.16-2.5.6.14,1.14.52,1.7.76.8.33,1.84.69,2.67.92.64.18,1.28.33,1.95.27Z" fill="#0675b0"/>
  <path d="M27.45,38.91c0,.36,0,.73,0,1.09,0,.31,0,.63,0,.94-.37.2-.63-.11-.94-.2-1.47-.43-2.63-.86-4.04-1.43-.41-.17-.84-.59-1.27-.4,0-.83,0-1.67,0-2.5,1.29.61,2.58,1.39,3.91,1.91.73.29,1.55.64,2.34.59Z" fill="#028cbd"/>
  <path d="M27.45,40.95c.01.66,0,1.21.08,1.88-.67.06-1.31-.1-1.95-.27-.83-.23-1.87-.59-2.67-.92-.57-.23-1.1-.62-1.7-.76-.01-.65,0-1.3,0-1.95.44-.18.87.24,1.27.4,1.41.57,2.57,1,4.04,1.43.3.09.57.39.94.2Z" fill="#0481b7"/>
  <path d="M28.31,45.16c.16.06.3.4.39.49.07.07.15.05.16.05.2.2.43.5.72.65s.62.06.52.36c-.84.12-1.74.1-2.6,0-1.32-.17-4.68-.92-5.64-1.71-.07-.06-.21-.05-.25-.09-.15-.15-.22-1.27-.25-1.54.08-.15.26-.06.37-.02.34.13.89.52,1.19.61,1.06.33,2.52.77,3.61,1,.53.11,1.37.06,1.79.21Z" fill="#086ba9"/>
  <path d="M30.38,46.65c.05.03.05.05,0,.08v-.08Z" fill="#086ba9"/>
  <path d="M21.2,29.15c.25-.02.18.42.28.62.2.39.49.39.73.6.44.37.71.92,1.26,1.24.65.38,1.7.68,2.3,1.14.71.54.43.53,1.39.86.08.03.06.2.21.15,0,.89.11,2.18,0,3.01-.01.08.02.17-.12.11-.29-.11-.66-.4-.95-.54-.63-.31-1.27-.57-1.88-.93-.94-.56-1.78-1.31-2.79-1.74-.15-.06-.26-.11-.43-.07,0-1.48,0-2.97,0-4.45Z" fill="#08a6c8"/>
  <path d="M54.17,42.12s.15.16.08.31h-.16c.02-.1.06-.21.08-.31Z" fill="#fe9415"/>
  <path d="M54.01,42.66c0-.07,0-.13.08-.16-.01.06,0,.13-.08.16Z" fill="#fe9415"/>
  <path d="M50.5,46.1c.21.08-.23.17-.25.18-.23.06-.45.14-.68.14,0,.28.31.38.32.66.08,1.44-.94,2.97-1.84,4.03-.21.24-.57.32-.59.7-1.12,0-2.24,0-3.36,0,0-.06,0-.13,0-.19.04-.32,1-1.71,1.23-2.05.7-1.04,1.17-1.09,1.93-1.9.2-.21.69-.74.5-1.02.22.06.39-.05.55-.08.71-.15,1.51-.23,2.19-.47ZM49.48,46.49h-.23v.08h.23v-.08Z" fill="#fc7911"/>
  <path d="M46.2,28.13c-.02.36.29.58.43.85s.24.62.41.92c.56.99,1.48,2.02,1.91,3.02.16.37,0,.26-.1.53-.29-.03-.82-.07-1.09-.08l-1.17-.08c0-.13-.01-.24-.08-.35-.47-.87-1.25-1.69-1.71-2.59-.19-.37-.78-1.68-.86-2.03-.01-.06-.02-.12-.01-.18.75-.01,1.51.01,2.27,0Z" fill="#8ac040"/>
  <rect x="49.25" y="46.49" width=".23" height=".08" fill="#fe8613"/>
</svg>